# xmcd CD database file
#
# Track frame offsets:
#	182
#	11907
#	24607
#	36570
#	48882
#	59845
#	71270
#	83007
#	93082
#	106420
#	122032
#	135832
#	146070
#	156195
#
# Disc length: 2310 seconds
#
# Revision: 0
# Processed by: cddbd v1.5.1PL0 Copyright (c) Steve Scherf et al.
# Submitted via: CDex 1.51
#
DISCID=bb09040e
DTITLE=John Lee Hooker - The Great John Lee Hooker
DYEAR=1900
DGENRE=Blues
TTITLE0=Boogie Chillum
TTITLE1=Hobo Blues
TTITLE2=Crawling King Snake Blues
TTITLE3=I'm in the Mood
TTITLE4=No Shoes
TTITLE5=Boom Boom
TTITLE6=Little Wheel
TTITLE7=Dimples
TTITLE8=Ground Hog Blues
TTITLE9=Hey Baby
TTITLE10=I Don't Want Your  Money
TTITLE11=Maudie
TTITLE12=Want Ad Blues
TTITLE13=Blues Before Sunrise
EXTD=
EXTT0=
EXTT1=
EXTT2=
EXTT3=
EXTT4=
EXTT5=
EXTT6=
EXTT7=
EXTT8=
EXTT9=
EXTT10=
EXTT11=
EXTT12=
EXTT13=
PLAYORDER=
